<svg viewBox="0 0 30 30" fill="none" xmlns="http://www.w3.org/2000/svg">
<path d="M13.5497 8.31325C13.1631 8.31325 12.8294 8.54211 12.7065 8.87012C12.538 9.31965 12.3441 9.62098 12.1246 9.77438C11.824 9.98426 11.3008 10.0892 10.5552 10.0892H8.44476C7.69889 10.0892 7.17577 9.98426 6.87543 9.77438C6.65572 9.62101 6.46172 9.31975 6.29339 8.87028C6.1705 8.54218 5.83679 8.31325 5.45018 8.31325C4.96214 8.31325 4.56653 8.66734 4.56653 9.10413V13.27C4.56653 13.7068 4.96214 14.0609 5.45018 14.0609H5.4574C5.84005 14.0609 6.17035 13.8364 6.29738 13.5134C6.46881 13.0772 6.67052 12.7809 6.90253 12.624C7.2209 12.4087 7.73499 12.3011 8.44479 12.3011H10.5553C11.2648 12.3011 11.7789 12.4087 12.0975 12.624C12.3293 12.7809 12.531 13.0773 12.7026 13.5135C12.8296 13.8365 13.1599 14.0609 13.5425 14.0609H13.5499C14.0379 14.0609 14.4335 13.7068 14.4335 13.27V9.10416C14.4335 8.66737 14.0379 8.31328 13.5499 8.31328H13.5497V8.31325Z" fill="white"/>
<path d="M16.157 5.8366C16.2893 6.1783 16.6513 6.41084 17.0554 6.41084H17.3592C17.8848 6.41084 18.3109 6.02949 18.3109 5.55908V1.69847C18.3109 1.22806 17.8848 0.846706 17.3592 0.846706H1.64222C1.11662 0.846706 0.690552 1.22806 0.690552 1.69847V5.55905C0.690552 6.02946 1.11662 6.41081 1.64222 6.41081H1.92424C2.33779 6.41081 2.70542 6.16711 2.83042 5.81428C3.19117 4.79593 3.54961 4.18625 3.90573 3.98521C4.32632 3.74785 5.13936 3.62878 6.34382 3.62878H12.6576C13.888 3.62878 14.6942 3.75048 15.0763 3.99393C15.4011 4.20106 15.7615 4.81546 16.157 5.8366Z" fill="white"/>
<path d="M0.395056 16.8604L0.662592 21.347C0.689564 21.7991 1.10702 22.1533 1.6129 22.1533H17.373C17.8779 22.1533 18.2949 21.8005 18.3232 21.3493L18.6048 16.8628C18.6354 16.3744 18.2012 15.9632 17.6546 15.9632H17.4949C17.0509 15.9632 16.6644 16.2428 16.5677 16.6307C16.2726 17.8143 15.9212 18.554 15.5141 18.8496C15.0349 19.1974 14.083 19.3713 12.6583 19.3713H6.18912C4.88069 19.3713 3.98414 19.2035 3.49848 18.867C3.08474 18.5807 2.72951 17.8358 2.43341 16.6325C2.33773 16.2437 1.95061 15.9632 1.5058 15.9632H1.34539C0.799863 15.9632 0.365992 16.3729 0.395056 16.8604Z" fill="white"/>
</svg>
